<svg width="66" height="46" viewBox="0 0 66 46" fill="none" xmlns="http://www.w3.org/2000/svg">
<path d="M0.7 0.839996H30.46V9.24H19.72V45H11.02V9.24H0.7V0.839996Z" fill="url(#paint0_linear_217_17)"/>
<path d="M62.4363 11.52C60.7563 10.6 59.0363 9.84 57.2763 9.24C55.5563 8.64 53.9363 8.34 52.4163 8.34C50.5363 8.34 49.0563 8.72 47.9763 9.48C46.8963 10.24 46.3563 11.38 46.3563 12.9C46.3563 13.94 46.7563 14.88 47.5563 15.72C48.3963 16.52 49.4563 17.24 50.7363 17.88C52.0563 18.52 53.4163 19.1 54.8163 19.62C56.0963 20.1 57.3563 20.68 58.5963 21.36C59.8763 22 61.0163 22.82 62.0163 23.82C63.0163 24.78 63.8163 26 64.4163 27.48C65.0163 28.92 65.3163 30.7 65.3163 32.82C65.3163 35.06 64.7363 37.14 63.5763 39.06C62.4163 40.98 60.7163 42.54 58.4763 43.74C56.2363 44.9 53.4763 45.48 50.1963 45.48C48.5163 45.48 46.7963 45.32 45.0363 45C43.3163 44.64 41.6163 44.12 39.9363 43.44C38.2563 42.72 36.6363 41.82 35.0763 40.74L38.9163 33.96C39.9563 34.72 41.0763 35.4 42.2763 36C43.5163 36.56 44.7563 37 45.9963 37.32C47.2363 37.64 48.3763 37.8 49.4163 37.8C50.4563 37.8 51.4963 37.66 52.5363 37.38C53.6163 37.06 54.4963 36.54 55.1763 35.82C55.8963 35.1 56.2563 34.1 56.2563 32.82C56.2563 31.94 55.9563 31.14 55.3563 30.42C54.7963 29.7 54.0163 29.04 53.0163 28.44C52.0563 27.84 50.9963 27.32 49.8363 26.88C48.4763 26.36 47.0763 25.76 45.6363 25.08C44.1963 24.4 42.8363 23.58 41.5563 22.62C40.3163 21.62 39.2963 20.4 38.4963 18.96C37.7363 17.48 37.3563 15.68 37.3563 13.56C37.3563 11 37.9163 8.78 39.0363 6.9C40.1963 5.02 41.8163 3.54 43.8963 2.46C45.9763 1.34 48.3763 0.719998 51.0963 0.599999C54.6563 0.599999 57.5363 1.02 59.7363 1.86C61.9763 2.7 63.9763 3.7 65.7363 4.86L62.4363 11.52Z" fill="#4499FB"/>
<defs>
<linearGradient id="paint0_linear_217_17" x1="36.5" y1="0" x2="36.5" y2="43" gradientUnits="userSpaceOnUse">
<stop stop-color="#0067DC"/>
<stop offset="0.9999" stop-color="#0758B4"/>
<stop offset="1" stop-opacity="0"/>
</linearGradient>
</defs>
</svg>
